<?xml version="1.0" standalone="no"?>
<!DOCTYPE svg PUBLIC "-//W3C//DTD SVG 20010904//EN"
 "http://www.w3.org/TR/2001/REC-SVG-20010904/DTD/svg10.dtd">
<svg version="1.0" xmlns="http://www.w3.org/2000/svg"
 width="1500.000000pt" height="1500.000000pt" viewBox="0 0 1500.000000 1500.000000"
 preserveAspectRatio="xMidYMid meet">
<metadata>
Created by potrace 1.14, written by Peter Selinger 2001-2017
</metadata>
<g transform="translate(0.000000,1500.000000) scale(0.100000,-0.100000)"
fill="#000000" stroke="none">
<path d="M0 7500 l0 -7500 7500 0 7500 0 0 7500 0 7500 -7500 0 -7500 0 0
-7500z m10256 2213 c777 -774 906 -906 932 -958 85 -168 82 -367 -9 -522 -25
-43 -185 -209 -599 -623 -779 -780 -1261 -1255 -1285 -1268 -20 -10 -20 -7
-19 2156 1 1192 2 2169 3 2170 4 12 168 -149 977 -955z m-4286 -3494 l0 -2170
-32 22 c-18 12 -443 432 -945 933 -907 906 -912 911 -948 988 -72 156 -69 306
7 461 40 80 55 96 642 683 703 703 1261 1254 1270 1254 3 0 6 -977 6 -2171z"/>
</g>
</svg>
